<?xml version="1.0" standalone="no"?>
<!DOCTYPE svg PUBLIC "-//W3C//DTD SVG 20010904//EN"
 "http://www.w3.org/TR/2001/REC-SVG-20010904/DTD/svg10.dtd">
<svg version="1.0" xmlns="http://www.w3.org/2000/svg"
 width="439.000000pt" height="78.000000pt" viewBox="0 0 439.000000 78.000000"
 preserveAspectRatio="xMidYMid meet">

<g transform="translate(0.000000,78.000000) scale(0.100000,-0.100000)"
fill="#000000" stroke="none">
<path d="M1921 490 c-78 -110 -145 -200 -149 -200 -5 0 -62 65 -127 145 -66
80 -120 145 -121 145 -4 0 238 -455 246 -464 4 -4 74 123 154 283 81 160 145
291 143 291 -2 0 -68 -90 -146 -200z"/>
<path d="M1953 307 c-77 -155 -140 -283 -138 -285 1 -1 80 36 176 84 191 95
459 224 465 224 2 0 4 -52 4 -115 l0 -115 25 0 25 0 1 133 c0 72 0 167 -1 210
l-1 77 75 0 c69 0 76 2 76 20 0 19 -7 20 -175 20 -168 0 -175 -1 -175 -20 0
-18 7 -20 75 -20 l75 0 0 -85 0 -84 -77 -25 c-133 -41 -116 -50 -198 107 -40
76 -76 142 -82 148 -5 5 -63 -100 -150 -274z m187 33 l40 -80 -22 -8 c-13 -5
-51 -19 -86 -32 -34 -12 -65 -21 -67 -18 -3 3 12 45 33 94 21 49 42 97 45 107
4 9 9 17 12 17 2 0 23 -36 45 -80z"/>
<path d="M4184 560 c-38 -15 -66 -61 -60 -99 7 -47 31 -69 81 -77 115 -17 170
-120 107 -202 -22 -28 -82 -50 -122 -44 -40 6 -89 52 -96 91 -5 21 -12 31 -25
31 -25 0 -24 -23 2 -76 47 -99 175 -119 257 -41 57 55 66 133 22 204 -21 35
-85 73 -123 73 -14 0 -35 9 -48 19 -20 16 -22 23 -14 47 11 32 55 45 79 25 14
-11 46 -5 46 9 0 27 -71 54 -106 40z"/>
<path d="M0 330 c0 -223 1 -230 20 -230 19 0 20 7 20 230 0 223 -1 230 -20
230 -19 0 -20 -7 -20 -230z"/>
<path d="M490 380 c0 -99 -3 -180 -7 -180 -4 0 -88 80 -185 177 l-178 178 0
-228 c0 -195 2 -227 15 -227 13 0 15 27 15 180 0 99 3 180 8 180 4 0 55 -48
112 -106 58 -58 140 -137 183 -176 l77 -70 0 226 c0 219 -1 226 -20 226 -19 0
-20 -7 -20 -180z"/>
<path d="M970 380 c0 -99 -3 -180 -7 -180 -4 0 -88 80 -185 177 l-178 178 0
-228 c0 -219 1 -227 20 -227 19 0 20 8 22 180 l3 179 183 -175 182 -176 0 226
c0 219 -1 226 -20 226 -19 0 -20 -7 -20 -180z"/>
<path d="M1214 541 c-51 -23 -111 -93 -125 -145 -27 -100 11 -198 100 -261 39
-27 50 -30 121 -30 71 0 82 3 121 30 66 47 100 101 106 172 3 36 1 75 -7 98
-16 50 -75 114 -125 136 -52 24 -138 24 -191 0z m161 -26 c28 -6 90 -57 107
-89 51 -94 6 -232 -89 -272 -41 -18 -125 -18 -166 0 -95 40 -140 178 -89 272
16 30 78 83 105 88 65 14 67 14 132 1z"/>
<path d="M2700 330 l0 -230 180 0 c173 0 180 1 180 20 0 19 -7 20 -155 20
l-155 0 0 190 0 190 155 0 c148 0 155 1 155 20 0 19 -7 20 -180 20 l-180 0 0
-230z"/>
<path d="M3239 537 c-58 -31 -104 -93 -119 -160 -23 -100 31 -211 123 -256 52
-25 141 -28 195 -6 56 24 110 81 126 133 6 18 3 22 -13 22 -11 0 -22 -9 -26
-19 -32 -102 -186 -147 -283 -84 -49 32 -92 107 -92 160 0 67 50 147 112 179
15 8 52 14 83 14 75 0 129 -28 163 -85 16 -27 35 -44 46 -45 12 0 16 5 12 16
-3 9 -6 20 -6 25 0 19 -77 93 -115 110 -59 27 -150 25 -206 -4z"/>
<path d="M3630 330 c0 -223 1 -230 20 -230 18 0 20 7 20 65 l0 65 150 0 150 0
0 -65 c0 -58 2 -65 20 -65 19 0 20 7 20 230 0 223 -1 230 -20 230 -19 0 -20
-7 -20 -145 l0 -145 -150 0 -150 0 0 145 c0 138 -1 145 -20 145 -19 0 -20 -7
-20 -230z"/>
<path d="M2790 250 c0 -19 7 -20 135 -20 128 0 135 1 135 20 0 19 -7 20 -135
20 -128 0 -135 -1 -135 -20z"/>
<path d="M2280 162 c-27 -13 -35 -22 -32 -39 3 -21 9 -23 58 -23 l54 0 -20 40
c-11 22 -21 40 -23 39 -1 0 -18 -8 -37 -17z"/>
</g>
</svg>
